<?xml version="1.0" encoding="UTF-8" standalone="no"?>
<!DOCTYPE svg PUBLIC "-//W3C//DTD SVG 1.1//EN"
 "http://www.w3.org/Graphics/SVG/1.1/DTD/svg11.dtd">
<!-- Generated by graphviz version 2.43.0 (0)
 -->
<!-- Title: dependencies Pages: 1 -->
<svg width="349pt" height="422pt"
 viewBox="0.00 0.00 349.00 422.00" xmlns="http://www.w3.org/2000/svg" xmlns:xlink="http://www.w3.org/1999/xlink">
<g id="graph0" class="graph" transform="scale(1 1) rotate(0) translate(4 418)">
<title>dependencies</title>
<polygon fill="white" stroke="transparent" points="-4,4 -4,-418 345,-418 345,4 -4,4"/>
<!-- certifi -->
<g id="node1" class="node">
<title>certifi</title>
<polygon fill="none" stroke="black" points="294.5,-198 235.5,-198 235.5,-162 294.5,-162 294.5,-198"/>
<text text-anchor="middle" x="265" y="-176.3" font-family="Times,serif" font-size="14.00">certifi</text>
</g>
<!-- charset&#45;normalizer -->
<g id="node2" class="node">
<title>charset&#45;normalizer</title>
<polygon fill="none" stroke="black" points="341,-144 189,-144 189,-108 341,-108 341,-144"/>
<text text-anchor="middle" x="265" y="-122.3" font-family="Times,serif" font-size="14.00">charset&#45;normalizer</text>
</g>
<!-- graphviz -->
<g id="node3" class="node">
<title>graphviz</title>
<polygon fill="none" stroke="black" points="304.5,-252 225.5,-252 225.5,-216 304.5,-216 304.5,-252"/>
<text text-anchor="middle" x="265" y="-230.3" font-family="Times,serif" font-size="14.00">graphviz</text>
</g>
<!-- idna -->
<g id="node4" class="node">
<title>idna</title>
<polygon fill="none" stroke="black" points="292,-90 238,-90 238,-54 292,-54 292,-90"/>
<text text-anchor="middle" x="265" y="-68.3" font-family="Times,serif" font-size="14.00">idna</text>
</g>
<!-- pip -->
<g id="node5" class="node">
<title>pip</title>
<polygon fill="none" stroke="black" points="85.5,-306 31.5,-306 31.5,-270 85.5,-270 85.5,-306"/>
<text text-anchor="middle" x="58.5" y="-284.3" font-family="Times,serif" font-size="14.00">pip</text>
</g>
<!-- pip&#45;viz -->
<g id="node6" class="node">
<title>pip&#45;viz</title>
<polygon fill="none" stroke="black" points="90.5,-252 26.5,-252 26.5,-216 90.5,-216 90.5,-252"/>
<text text-anchor="middle" x="58.5" y="-230.3" font-family="Times,serif" font-size="14.00">pip&#45;viz</text>
</g>
<!-- pip&#45;viz&#45;&gt;graphviz -->
<g id="edge1" class="edge">
<title>pip&#45;viz&#45;&gt;graphviz</title>
<path fill="none" stroke="black" d="M90.77,-234C90.77,-234 215.18,-234 215.18,-234"/>
<polygon fill="black" stroke="black" points="215.18,-237.5 225.18,-234 215.18,-230.5 215.18,-237.5"/>
</g>
<!-- pkg&#45;resources -->
<g id="node7" class="node">
<title>pkg&#45;resources</title>
<polygon fill="none" stroke="black" points="117,-360 0,-360 0,-324 117,-324 117,-360"/>
<text text-anchor="middle" x="58.5" y="-338.3" font-family="Times,serif" font-size="14.00">pkg&#45;resources</text>
</g>
<!-- requests -->
<g id="node8" class="node">
<title>requests</title>
<polygon fill="none" stroke="black" points="98,-117 19,-117 19,-81 98,-81 98,-117"/>
<text text-anchor="middle" x="58.5" y="-95.3" font-family="Times,serif" font-size="14.00">requests</text>
</g>
<!-- requests&#45;&gt;certifi -->
<g id="edge2" class="edge">
<title>requests&#45;&gt;certifi</title>
<path fill="none" stroke="black" d="M95,-117.38C95,-141.28 95,-180 95,-180 95,-180 225.39,-180 225.39,-180"/>
<polygon fill="black" stroke="black" points="225.39,-183.5 235.39,-180 225.39,-176.5 225.39,-183.5"/>
</g>
<!-- requests&#45;&gt;charset&#45;normalizer -->
<g id="edge5" class="edge">
<title>requests&#45;&gt;charset&#45;normalizer</title>
<path fill="none" stroke="black" d="M98.32,-112.5C98.32,-112.5 178.93,-112.5 178.93,-112.5"/>
<polygon fill="black" stroke="black" points="178.93,-116 188.93,-112.5 178.93,-109 178.93,-116"/>
</g>
<!-- requests&#45;&gt;idna -->
<g id="edge4" class="edge">
<title>requests&#45;&gt;idna</title>
<path fill="none" stroke="black" d="M98.32,-85.5C98.32,-85.5 227.82,-85.5 227.82,-85.5"/>
<polygon fill="black" stroke="black" points="227.82,-89 237.82,-85.5 227.82,-82 227.82,-89"/>
</g>
<!-- urllib3 -->
<g id="node9" class="node">
<title>urllib3</title>
<polygon fill="none" stroke="black" points="297,-36 233,-36 233,0 297,0 297,-36"/>
<text text-anchor="middle" x="265" y="-14.3" font-family="Times,serif" font-size="14.00">urllib3</text>
</g>
<!-- requests&#45;&gt;urllib3 -->
<g id="edge3" class="edge">
<title>requests&#45;&gt;urllib3</title>
<path fill="none" stroke="black" d="M59,-80.62C59,-56.72 59,-18 59,-18 59,-18 222.81,-18 222.81,-18"/>
<polygon fill="black" stroke="black" points="222.81,-21.5 232.81,-18 222.81,-14.5 222.81,-21.5"/>
</g>
<!-- setuptools -->
<g id="node10" class="node">
<title>setuptools</title>
<polygon fill="none" stroke="black" points="104,-414 13,-414 13,-378 104,-378 104,-414"/>
<text text-anchor="middle" x="58.5" y="-392.3" font-family="Times,serif" font-size="14.00">setuptools</text>
</g>
</g>
</svg>
